<?xml version="1.0" standalone="no"?>
<!DOCTYPE svg PUBLIC "-//W3C//DTD SVG 20010904//EN"
 "http://www.w3.org/TR/2001/REC-SVG-20010904/DTD/svg10.dtd">
<svg version="1.0" xmlns="http://www.w3.org/2000/svg"
 width="178.000000pt" height="178.000000pt" viewBox="0 0 178.000000 178.000000"
 preserveAspectRatio="xMidYMid meet">
<metadata>
Created by potrace 1.11, written by Peter Selinger 2001-2013
</metadata>
<g transform="translate(0.000000,178.000000) scale(0.100000,-0.100000)"
fill="#000000" stroke="none">
<path d="M725 1236 c-29 -29 -42 -88 -26 -122 l11 -25 31 23 c28 21 42 23 195
26 l164 4 0 29 c0 16 5 29 10 29 6 0 10 -13 10 -30 l0 -30 120 0 120 0 0 30
c0 17 5 30 10 30 6 0 10 -13 10 -30 l0 -30 93 0 c79 0 101 -4 140 -24 l47 -23
6 24 c11 41 -4 97 -31 121 l-26 22 -430 0 -430 0 -24 -24z"/>
<path d="M1024 1098 c-11 -13 -35 -47 -53 -75 l-33 -53 -80 0 c-103 0 -138
-17 -138 -69 0 -19 -4 -22 -22 -17 -83 24 -171 37 -288 42 -144 7 -203 -2
-208 -29 -3 -15 8 -17 92 -17 136 0 175 -22 129 -72 -11 -12 -13 -22 -7 -28 5
-5 73 -14 149 -19 77 -5 149 -12 160 -16 17 -5 23 0 34 30 35 99 195 99 237 0
l14 -35 135 0 135 0 14 33 c21 51 60 77 115 77 60 0 105 -28 122 -74 11 -31
17 -36 45 -36 37 0 67 24 60 49 -3 9 -19 71 -35 138 -16 67 -35 131 -41 143
-23 43 -64 50 -298 50 -214 0 -219 0 -238 -22z m124 -90 l3 -48 -76 0 c-75 0
-76 0 -64 23 35 66 49 78 93 75 l41 -3 3 -47z m197 2 l0 -45 -75 0 -75 0 -3
33 c-6 59 0 63 80 60 l73 -3 0 -45z m161 -95 c-5 -14 -9 -15 -21 -5 -12 10
-13 16 -4 27 15 18 34 1 25 -22z"/>
<path d="M115 909 c-22 -5 -57 -13 -77 -19 l-38 -11 0 -184 0 -185 49 0 c27 0
64 6 82 14 19 8 88 17 154 21 174 9 285 41 285 80 0 22 -44 40 -170 69 -63 15
-126 34 -139 43 -21 14 -22 16 -8 31 9 8 37 27 64 41 26 14 48 31 48 36 0 6
-40 14 -90 18 -49 4 -91 10 -93 12 -2 2 1 13 8 24 9 19 8 21 -12 20 -13 -1
-41 -5 -63 -10z"/>
<path d="M827 809 c-11 -6 -25 -26 -33 -45 -38 -90 68 -164 143 -100 60 52 20
156 -60 156 -18 0 -40 -5 -50 -11z m78 -79 c0 -20 -6 -26 -26 -28 -17 -2 -29
3 -32 12 -11 28 4 47 32 44 20 -2 26 -8 26 -28z"/>
<path d="M1345 788 c-22 -26 -26 -39 -21 -67 10 -64 81 -101 137 -71 28 16 52
68 44 99 -11 46 -44 71 -91 71 -35 0 -47 -5 -69 -32z m100 -46 c8 -20 -19 -47
-39 -39 -26 10 -32 38 -12 53 21 15 42 9 51 -14z"/>
<path d="M612 629 c-17 -6 -22 -14 -17 -29 4 -14 -2 -28 -20 -46 -14 -14 -25
-33 -23 -42 4 -22 46 -28 54 -8 9 23 45 20 51 -4 6 -23 22 -25 47 -7 16 12 16
17 -14 80 -33 69 -38 72 -78 56z"/>
<path d="M1713 623 l-53 -4 0 -55 c0 -59 16 -71 47 -34 12 14 20 16 30 9 7 -6
10 -15 7 -20 -6 -11 7 -12 22 -1 12 8 19 113 7 110 -4 -1 -32 -3 -60 -5z m22
-43 c-3 -5 -10 -10 -16 -10 -5 0 -9 5 -9 10 0 6 7 10 16 10 8 0 12 -4 9 -10z"/>
<path d="M780 610 l-55 -5 4 -50 c1 -27 4 -51 5 -52 0 0 28 2 61 5 l60 7 0 43
c0 37 2 40 13 25 7 -9 18 -32 24 -50 7 -18 17 -33 23 -33 14 0 45 32 45 47 0
5 9 18 20 28 20 18 20 17 20 -24 l0 -42 52 3 c33 2 53 8 56 17 3 10 -1 12 -16
9 -11 -3 -26 -2 -33 3 -10 6 -6 9 14 9 15 0 27 5 27 10 0 6 -12 10 -27 10 -21
0 -24 3 -14 9 8 5 20 7 26 5 7 -3 15 1 18 9 4 11 -8 16 -50 20 -56 6 -103 -4
-103 -23 0 -5 -7 -10 -15 -10 -8 0 -15 7 -15 15 0 9 -10 16 -22 16 -13 1 -32
2 -43 3 -11 1 -45 -1 -75 -4z m28 -52 c-2 -13 -7 -23 -13 -23 -5 0 -11 10 -13
23 -2 15 2 22 13 22 11 0 15 -7 13 -22z"/>
<path d="M1120 565 c0 -54 1 -55 29 -55 25 0 28 3 24 28 -4 26 -4 26 11 7 50
-65 66 -63 67 8 0 28 3 46 6 40 2 -7 11 -13 19 -13 9 0 14 -11 14 -35 0 -24 5
-35 15 -36 8 -1 21 -2 27 -3 9 -1 12 12 10 40 -3 30 1 43 12 47 37 15 12 25
-51 22 -38 -2 -78 -4 -90 -4 -17 -1 -21 -5 -16 -18 4 -12 0 -11 -11 5 -10 12
-28 22 -42 22 -23 0 -24 -3 -24 -55z"/>
<path d="M1388 609 c-24 -14 -23 -62 2 -84 23 -21 95 -29 108 -12 5 7 12 26
15 44 6 28 3 33 -27 47 -39 18 -73 20 -98 5z m69 -30 c16 -16 4 -49 -18 -49
-14 0 -19 7 -19 30 0 31 17 39 37 19z"/>
<path d="M1528 568 c-1 -27 -1 -52 1 -54 2 -2 28 -4 58 -4 l53 0 0 51 c0 36
-4 49 -12 46 -7 -2 -14 -12 -14 -23 -1 -10 -2 -25 -3 -31 -1 -7 -8 -13 -17
-13 -14 0 -15 7 -10 38 6 38 5 39 -23 40 -28 1 -29 -1 -33 -50z"/>
</g>
</svg>
